<mxfile host="Electron" modified="2024-05-07T23:48:35.314Z" agent="Mozilla/5.0 (Macintosh; Intel Mac OS X 10_15_7) AppleWebKit/537.36 (KHTML, like Gecko) draw.io/24.2.5 Chrome/120.0.6099.109 Electron/28.1.0 Safari/537.36" etag="nfWilSlrACY-ZXRXu9jo" version="24.2.5" type="device">
  <diagram name="Page-1" id="nojwFFKbEJfxAIoV3yGd">
    <mxGraphModel dx="1095" dy="770" grid="1" gridSize="10" guides="1" tooltips="1" connect="1" arrows="1" fold="1" page="1" pageScale="1" pageWidth="827" pageHeight="1169" math="0" shadow="0">
      <root>
        <mxCell id="0" />
        <mxCell id="1" parent="0" />
        <mxCell id="hN2UPd_6Lu9fuNbE9eLv-1" value="Developer" style="shape=umlActor;verticalLabelPosition=bottom;verticalAlign=top;html=1;outlineConnect=0;fontFamily=Gloria Hallelujah;fontSource=https%3A%2F%2Ffonts.googleapis.com%2Fcss%3Ffamily%3DGloria%2BHallelujah;sketch=1;curveFitting=1;jiggle=2;" vertex="1" parent="1">
          <mxGeometry x="125" y="190" width="30" height="60" as="geometry" />
        </mxCell>
        <mxCell id="hN2UPd_6Lu9fuNbE9eLv-2" value="IAC&lt;div&gt;Repo&lt;/div&gt;" style="shape=cylinder3;whiteSpace=wrap;html=1;boundedLbl=1;backgroundOutline=1;size=15;sketch=1;jiggle=2;curveFitting=1;strokeColor=default;align=center;verticalAlign=top;fontFamily=Gloria Hallelujah;fontSource=https%3A%2F%2Ffonts.googleapis.com%2Fcss%3Ffamily%3DGloria%2BHallelujah;fontSize=12;fontColor=default;fillColor=default;" vertex="1" parent="1">
          <mxGeometry x="250" y="320" width="60" height="80" as="geometry" />
        </mxCell>
        <mxCell id="hN2UPd_6Lu9fuNbE9eLv-3" value="Application&lt;div&gt;Code Repo&lt;/div&gt;" style="shape=cylinder3;whiteSpace=wrap;html=1;boundedLbl=1;backgroundOutline=1;size=15;sketch=1;jiggle=2;curveFitting=1;strokeColor=default;align=center;verticalAlign=top;fontFamily=Gloria Hallelujah;fontSource=https%3A%2F%2Ffonts.googleapis.com%2Fcss%3Ffamily%3DGloria%2BHallelujah;fontSize=12;fontColor=default;fillColor=default;" vertex="1" parent="1">
          <mxGeometry x="90" y="320" width="100" height="80" as="geometry" />
        </mxCell>
        <mxCell id="hN2UPd_6Lu9fuNbE9eLv-4" value="Cloud Engineer" style="shape=umlActor;verticalLabelPosition=bottom;verticalAlign=top;html=1;outlineConnect=0;fontFamily=Gloria Hallelujah;fontSource=https%3A%2F%2Ffonts.googleapis.com%2Fcss%3Ffamily%3DGloria%2BHallelujah;sketch=1;curveFitting=1;jiggle=2;" vertex="1" parent="1">
          <mxGeometry x="265" y="190" width="30" height="60" as="geometry" />
        </mxCell>
        <mxCell id="hN2UPd_6Lu9fuNbE9eLv-5" value="CI/CD Tools" style="rounded=1;whiteSpace=wrap;html=1;sketch=1;jiggle=2;curveFitting=1;strokeColor=default;align=center;verticalAlign=bottom;fontFamily=Gloria Hallelujah;fontSource=https%3A%2F%2Ffonts.googleapis.com%2Fcss%3Ffamily%3DGloria%2BHallelujah;fontSize=12;fontColor=default;fillColor=default;" vertex="1" parent="1">
          <mxGeometry x="70" y="470" width="260" height="220" as="geometry" />
        </mxCell>
        <mxCell id="hN2UPd_6Lu9fuNbE9eLv-6" value="" style="endArrow=classic;html=1;rounded=0;fontFamily=Gloria Hallelujah;fontSource=https%3A%2F%2Ffonts.googleapis.com%2Fcss%3Ffamily%3DGloria%2BHallelujah;fontSize=12;fontColor=default;" edge="1" parent="1" source="hN2UPd_6Lu9fuNbE9eLv-16">
          <mxGeometry width="50" height="50" relative="1" as="geometry">
            <mxPoint x="80" y="573" as="sourcePoint" />
            <mxPoint x="320" y="573" as="targetPoint" />
          </mxGeometry>
        </mxCell>
        <mxCell id="hN2UPd_6Lu9fuNbE9eLv-12" value="" style="endArrow=classic;html=1;rounded=0;fontFamily=Gloria Hallelujah;fontSource=https%3A%2F%2Ffonts.googleapis.com%2Fcss%3Ffamily%3DGloria%2BHallelujah;fontSize=12;fontColor=default;" edge="1" parent="1" source="hN2UPd_6Lu9fuNbE9eLv-13" target="hN2UPd_6Lu9fuNbE9eLv-11">
          <mxGeometry width="50" height="50" relative="1" as="geometry">
            <mxPoint x="80" y="573" as="sourcePoint" />
            <mxPoint x="320" y="573" as="targetPoint" />
          </mxGeometry>
        </mxCell>
        <mxCell id="hN2UPd_6Lu9fuNbE9eLv-11" value="" style="ellipse;whiteSpace=wrap;html=1;aspect=fixed;strokeColor=default;align=center;verticalAlign=top;fontFamily=Gloria Hallelujah;fontSource=https%3A%2F%2Ffonts.googleapis.com%2Fcss%3Ffamily%3DGloria%2BHallelujah;fontSize=12;fontColor=default;fillColor=default;" vertex="1" parent="1">
          <mxGeometry x="176" y="568" width="10" height="10" as="geometry" />
        </mxCell>
        <mxCell id="hN2UPd_6Lu9fuNbE9eLv-15" value="" style="endArrow=classic;html=1;rounded=0;fontFamily=Gloria Hallelujah;fontSource=https%3A%2F%2Ffonts.googleapis.com%2Fcss%3Ffamily%3DGloria%2BHallelujah;fontSize=12;fontColor=default;" edge="1" parent="1" source="hN2UPd_6Lu9fuNbE9eLv-11" target="hN2UPd_6Lu9fuNbE9eLv-14">
          <mxGeometry width="50" height="50" relative="1" as="geometry">
            <mxPoint x="155" y="573" as="sourcePoint" />
            <mxPoint x="320" y="573" as="targetPoint" />
          </mxGeometry>
        </mxCell>
        <mxCell id="hN2UPd_6Lu9fuNbE9eLv-14" value="" style="ellipse;whiteSpace=wrap;html=1;aspect=fixed;strokeColor=default;align=center;verticalAlign=top;fontFamily=Gloria Hallelujah;fontSource=https%3A%2F%2Ffonts.googleapis.com%2Fcss%3Ffamily%3DGloria%2BHallelujah;fontSize=12;fontColor=default;fillColor=default;" vertex="1" parent="1">
          <mxGeometry x="231" y="568" width="10" height="10" as="geometry" />
        </mxCell>
        <mxCell id="hN2UPd_6Lu9fuNbE9eLv-17" value="" style="endArrow=classic;html=1;rounded=0;fontFamily=Gloria Hallelujah;fontSource=https%3A%2F%2Ffonts.googleapis.com%2Fcss%3Ffamily%3DGloria%2BHallelujah;fontSize=12;fontColor=default;" edge="1" parent="1" source="hN2UPd_6Lu9fuNbE9eLv-14" target="hN2UPd_6Lu9fuNbE9eLv-16">
          <mxGeometry width="50" height="50" relative="1" as="geometry">
            <mxPoint x="200" y="573" as="sourcePoint" />
            <mxPoint x="320" y="573" as="targetPoint" />
          </mxGeometry>
        </mxCell>
        <mxCell id="hN2UPd_6Lu9fuNbE9eLv-16" value="" style="ellipse;whiteSpace=wrap;html=1;aspect=fixed;strokeColor=default;align=center;verticalAlign=top;fontFamily=Gloria Hallelujah;fontSource=https%3A%2F%2Ffonts.googleapis.com%2Fcss%3Ffamily%3DGloria%2BHallelujah;fontSize=12;fontColor=default;fillColor=default;" vertex="1" parent="1">
          <mxGeometry x="284" y="568" width="10" height="10" as="geometry" />
        </mxCell>
        <mxCell id="hN2UPd_6Lu9fuNbE9eLv-21" value="" style="endArrow=classic;html=1;rounded=0;fontFamily=Gloria Hallelujah;fontSource=https%3A%2F%2Ffonts.googleapis.com%2Fcss%3Ffamily%3DGloria%2BHallelujah;fontSize=12;fontColor=default;" edge="1" parent="1" target="hN2UPd_6Lu9fuNbE9eLv-13">
          <mxGeometry width="50" height="50" relative="1" as="geometry">
            <mxPoint x="80" y="573" as="sourcePoint" />
            <mxPoint x="145" y="573" as="targetPoint" />
          </mxGeometry>
        </mxCell>
        <mxCell id="hN2UPd_6Lu9fuNbE9eLv-13" value="" style="ellipse;whiteSpace=wrap;html=1;aspect=fixed;strokeColor=default;align=center;verticalAlign=top;fontFamily=Gloria Hallelujah;fontSource=https%3A%2F%2Ffonts.googleapis.com%2Fcss%3Ffamily%3DGloria%2BHallelujah;fontSize=12;fontColor=default;fillColor=default;" vertex="1" parent="1">
          <mxGeometry x="114" y="568" width="10" height="10" as="geometry" />
        </mxCell>
        <mxCell id="hN2UPd_6Lu9fuNbE9eLv-23" value="pipeline" style="text;html=1;align=center;verticalAlign=middle;whiteSpace=wrap;rounded=0;fontFamily=Gloria Hallelujah;fontSource=https%3A%2F%2Ffonts.googleapis.com%2Fcss%3Ffamily%3DGloria%2BHallelujah;fontSize=12;fontColor=default;" vertex="1" parent="1">
          <mxGeometry x="166" y="583" width="60" height="30" as="geometry" />
        </mxCell>
        <mxCell id="hN2UPd_6Lu9fuNbE9eLv-24" value="Git&lt;div&gt;Checkout&lt;/div&gt;" style="text;html=1;align=center;verticalAlign=middle;whiteSpace=wrap;rounded=0;fontFamily=Gloria Hallelujah;fontSource=https%3A%2F%2Ffonts.googleapis.com%2Fcss%3Ffamily%3DGloria%2BHallelujah;fontSize=12;fontColor=default;" vertex="1" parent="1">
          <mxGeometry x="89" y="520" width="60" height="30" as="geometry" />
        </mxCell>
        <mxCell id="hN2UPd_6Lu9fuNbE9eLv-25" value="Code&lt;div&gt;Scan&lt;/div&gt;" style="text;html=1;align=center;verticalAlign=middle;whiteSpace=wrap;rounded=0;fontFamily=Gloria Hallelujah;fontSource=https%3A%2F%2Ffonts.googleapis.com%2Fcss%3Ffamily%3DGloria%2BHallelujah;fontSize=12;fontColor=default;" vertex="1" parent="1">
          <mxGeometry x="149" y="520" width="60" height="30" as="geometry" />
        </mxCell>
        <mxCell id="hN2UPd_6Lu9fuNbE9eLv-26" value="image&lt;div&gt;Scan&lt;/div&gt;" style="text;html=1;align=center;verticalAlign=middle;whiteSpace=wrap;rounded=0;fontFamily=Gloria Hallelujah;fontSource=https%3A%2F%2Ffonts.googleapis.com%2Fcss%3Ffamily%3DGloria%2BHallelujah;fontSize=12;fontColor=default;" vertex="1" parent="1">
          <mxGeometry x="259" y="520" width="60" height="30" as="geometry" />
        </mxCell>
        <mxCell id="hN2UPd_6Lu9fuNbE9eLv-27" value="Test&lt;div&gt;&amp;amp;&lt;/div&gt;&lt;div&gt;Build&lt;/div&gt;" style="text;html=1;align=center;verticalAlign=middle;whiteSpace=wrap;rounded=0;fontFamily=Gloria Hallelujah;fontSource=https%3A%2F%2Ffonts.googleapis.com%2Fcss%3Ffamily%3DGloria%2BHallelujah;fontSize=12;fontColor=default;" vertex="1" parent="1">
          <mxGeometry x="205" y="520" width="60" height="30" as="geometry" />
        </mxCell>
        <mxCell id="hN2UPd_6Lu9fuNbE9eLv-28" value="" style="rounded=0;whiteSpace=wrap;html=1;sketch=1;jiggle=2;curveFitting=1;strokeColor=default;align=center;verticalAlign=top;fontFamily=Gloria Hallelujah;fontSource=https%3A%2F%2Ffonts.googleapis.com%2Fcss%3Ffamily%3DGloria%2BHallelujah;fontSize=12;fontColor=default;fillColor=default;" vertex="1" parent="1">
          <mxGeometry x="380" y="130" width="730" height="560" as="geometry" />
        </mxCell>
        <mxCell id="hN2UPd_6Lu9fuNbE9eLv-29" value="Non-VPC Workloads (PaaS)" style="rounded=0;whiteSpace=wrap;html=1;sketch=1;jiggle=2;curveFitting=1;strokeColor=default;align=center;verticalAlign=top;fontFamily=Gloria Hallelujah;fontSource=https%3A%2F%2Ffonts.googleapis.com%2Fcss%3Ffamily%3DGloria%2BHallelujah;fontSize=12;fontColor=default;fillColor=default;" vertex="1" parent="1">
          <mxGeometry x="420" y="150" width="470" height="240" as="geometry" />
        </mxCell>
        <mxCell id="hN2UPd_6Lu9fuNbE9eLv-32" value="" style="ellipse;shape=cloud;whiteSpace=wrap;html=1;sketch=1;jiggle=2;curveFitting=1;strokeColor=default;align=center;verticalAlign=top;fontFamily=Gloria Hallelujah;fontSource=https%3A%2F%2Ffonts.googleapis.com%2Fcss%3Ffamily%3DGloria%2BHallelujah;fontSize=12;fontColor=default;fillColor=default;" vertex="1" parent="1">
          <mxGeometry x="319" y="60" width="140" height="100" as="geometry" />
        </mxCell>
        <mxCell id="hN2UPd_6Lu9fuNbE9eLv-31" value="" style="shape=image;imageAspect=0;aspect=fixed;verticalLabelPosition=bottom;verticalAlign=top;sketch=1;jiggle=2;curveFitting=1;strokeColor=default;align=center;fontFamily=Gloria Hallelujah;fontSource=https%3A%2F%2Ffonts.googleapis.com%2Fcss%3Ffamily%3DGloria%2BHallelujah;fontSize=12;fontColor=default;fillColor=default;image=https://upload.wikimedia.org/wikipedia/commons/thumb/9/93/Amazon_Web_Services_Logo.svg/1024px-Amazon_Web_Services_Logo.svg.png;" vertex="1" parent="1">
          <mxGeometry x="355.14000000000004" y="89.75" width="67.71" height="40.5" as="geometry" />
        </mxCell>
        <mxCell id="hN2UPd_6Lu9fuNbE9eLv-34" value="VPC Workloads (IaaS)" style="rounded=0;whiteSpace=wrap;html=1;sketch=1;jiggle=2;curveFitting=1;strokeColor=default;align=center;verticalAlign=top;fontFamily=Gloria Hallelujah;fontSource=https%3A%2F%2Ffonts.googleapis.com%2Fcss%3Ffamily%3DGloria%2BHallelujah;fontSize=12;fontColor=default;fillColor=default;" vertex="1" parent="1">
          <mxGeometry x="422.85" y="429" width="467.15" height="230" as="geometry" />
        </mxCell>
        <mxCell id="hN2UPd_6Lu9fuNbE9eLv-35" value="" style="sketch=0;points=[[0,0,0],[0.25,0,0],[0.5,0,0],[0.75,0,0],[1,0,0],[0,1,0],[0.25,1,0],[0.5,1,0],[0.75,1,0],[1,1,0],[0,0.25,0],[0,0.5,0],[0,0.75,0],[1,0.25,0],[1,0.5,0],[1,0.75,0]];outlineConnect=0;fontColor=#232F3E;fillColor=#8C4FFF;strokeColor=#ffffff;dashed=0;verticalLabelPosition=bottom;verticalAlign=top;align=center;html=1;fontSize=12;fontStyle=0;aspect=fixed;shape=mxgraph.aws4.resourceIcon;resIcon=mxgraph.aws4.vpc;jiggle=2;curveFitting=1;fontFamily=Gloria Hallelujah;fontSource=https%3A%2F%2Ffonts.googleapis.com%2Fcss%3Ffamily%3DGloria%2BHallelujah;" vertex="1" parent="1">
          <mxGeometry x="422.85" y="429" width="29" height="29" as="geometry" />
        </mxCell>
        <mxCell id="hN2UPd_6Lu9fuNbE9eLv-37" value="Subnet" style="outlineConnect=0;gradientColor=none;html=1;whiteSpace=wrap;fontSize=12;fontStyle=0;shape=mxgraph.aws4.group;grIcon=mxgraph.aws4.group_subnet;strokeColor=#879196;fillColor=none;verticalAlign=top;align=left;spacingLeft=30;fontColor=#879196;dashed=0;fontFamily=Gloria Hallelujah;fontSource=https%3A%2F%2Ffonts.googleapis.com%2Fcss%3Ffamily%3DGloria%2BHallelujah;" vertex="1" parent="1">
          <mxGeometry x="440" y="470" width="430" height="170" as="geometry" />
        </mxCell>
        <mxCell id="hN2UPd_6Lu9fuNbE9eLv-41" value="" style="rounded=0;whiteSpace=wrap;html=1;sketch=1;jiggle=2;curveFitting=1;strokeColor=default;align=center;verticalAlign=top;fontFamily=Gloria Hallelujah;fontSource=https%3A%2F%2Ffonts.googleapis.com%2Fcss%3Ffamily%3DGloria%2BHallelujah;fontSize=12;fontColor=default;fillColor=default;" vertex="1" parent="1">
          <mxGeometry x="451.85" y="503" width="218.15" height="127" as="geometry" />
        </mxCell>
        <mxCell id="hN2UPd_6Lu9fuNbE9eLv-40" value="" style="sketch=0;points=[[0,0,0],[0.25,0,0],[0.5,0,0],[0.75,0,0],[1,0,0],[0,1,0],[0.25,1,0],[0.5,1,0],[0.75,1,0],[1,1,0],[0,0.25,0],[0,0.5,0],[0,0.75,0],[1,0.25,0],[1,0.5,0],[1,0.75,0]];outlineConnect=0;fontColor=#232F3E;fillColor=#ED7100;strokeColor=#ffffff;dashed=0;verticalLabelPosition=bottom;verticalAlign=top;align=center;html=1;fontSize=12;fontStyle=0;aspect=fixed;shape=mxgraph.aws4.resourceIcon;resIcon=mxgraph.aws4.eks;jiggle=2;curveFitting=1;fontFamily=Gloria Hallelujah;fontSource=https%3A%2F%2Ffonts.googleapis.com%2Fcss%3Ffamily%3DGloria%2BHallelujah;" vertex="1" parent="1">
          <mxGeometry x="640" y="503" width="28" height="28" as="geometry" />
        </mxCell>
        <mxCell id="hN2UPd_6Lu9fuNbE9eLv-38" value="EC2" style="sketch=0;points=[[0,0,0],[0.25,0,0],[0.5,0,0],[0.75,0,0],[1,0,0],[0,1,0],[0.25,1,0],[0.5,1,0],[0.75,1,0],[1,1,0],[0,0.25,0],[0,0.5,0],[0,0.75,0],[1,0.25,0],[1,0.5,0],[1,0.75,0]];outlineConnect=0;fontColor=#232F3E;fillColor=#ED7100;strokeColor=#ffffff;dashed=0;verticalLabelPosition=bottom;verticalAlign=top;align=center;html=1;fontSize=12;fontStyle=0;aspect=fixed;shape=mxgraph.aws4.resourceIcon;resIcon=mxgraph.aws4.ec2;jiggle=2;curveFitting=1;fontFamily=Gloria Hallelujah;fontSource=https%3A%2F%2Ffonts.googleapis.com%2Fcss%3Ffamily%3DGloria%2BHallelujah;" vertex="1" parent="1">
          <mxGeometry x="706" y="556.5" width="54" height="54" as="geometry" />
        </mxCell>
        <mxCell id="hN2UPd_6Lu9fuNbE9eLv-39" value="EKS Nodes&lt;div&gt;(EC2)&lt;/div&gt;" style="sketch=0;points=[[0,0,0],[0.25,0,0],[0.5,0,0],[0.75,0,0],[1,0,0],[0,1,0],[0.25,1,0],[0.5,1,0],[0.75,1,0],[1,1,0],[0,0.25,0],[0,0.5,0],[0,0.75,0],[1,0.25,0],[1,0.5,0],[1,0.75,0]];outlineConnect=0;fontColor=#232F3E;fillColor=#ED7100;strokeColor=#ffffff;dashed=0;verticalLabelPosition=bottom;verticalAlign=top;align=center;html=1;fontSize=12;fontStyle=0;aspect=fixed;shape=mxgraph.aws4.resourceIcon;resIcon=mxgraph.aws4.ec2;jiggle=2;curveFitting=1;fontFamily=Gloria Hallelujah;fontSource=https%3A%2F%2Ffonts.googleapis.com%2Fcss%3Ffamily%3DGloria%2BHallelujah;" vertex="1" parent="1">
          <mxGeometry x="480" y="531" width="54" height="54" as="geometry" />
        </mxCell>
        <mxCell id="hN2UPd_6Lu9fuNbE9eLv-42" value="EKS Nodes&lt;div&gt;(EC2)&lt;/div&gt;" style="sketch=0;points=[[0,0,0],[0.25,0,0],[0.5,0,0],[0.75,0,0],[1,0,0],[0,1,0],[0.25,1,0],[0.5,1,0],[0.75,1,0],[1,1,0],[0,0.25,0],[0,0.5,0],[0,0.75,0],[1,0.25,0],[1,0.5,0],[1,0.75,0]];outlineConnect=0;fontColor=#232F3E;fillColor=#ED7100;strokeColor=#ffffff;dashed=0;verticalLabelPosition=bottom;verticalAlign=top;align=center;html=1;fontSize=12;fontStyle=0;aspect=fixed;shape=mxgraph.aws4.resourceIcon;resIcon=mxgraph.aws4.ec2;jiggle=2;curveFitting=1;fontFamily=Gloria Hallelujah;fontSource=https%3A%2F%2Ffonts.googleapis.com%2Fcss%3Ffamily%3DGloria%2BHallelujah;" vertex="1" parent="1">
          <mxGeometry x="560" y="531" width="54" height="54" as="geometry" />
        </mxCell>
        <mxCell id="hN2UPd_6Lu9fuNbE9eLv-43" value="EC2" style="sketch=0;points=[[0,0,0],[0.25,0,0],[0.5,0,0],[0.75,0,0],[1,0,0],[0,1,0],[0.25,1,0],[0.5,1,0],[0.75,1,0],[1,1,0],[0,0.25,0],[0,0.5,0],[0,0.75,0],[1,0.25,0],[1,0.5,0],[1,0.75,0]];outlineConnect=0;fontColor=#232F3E;fillColor=#ED7100;strokeColor=#ffffff;dashed=0;verticalLabelPosition=bottom;verticalAlign=top;align=center;html=1;fontSize=12;fontStyle=0;aspect=fixed;shape=mxgraph.aws4.resourceIcon;resIcon=mxgraph.aws4.ec2;jiggle=2;curveFitting=1;fontFamily=Gloria Hallelujah;fontSource=https%3A%2F%2Ffonts.googleapis.com%2Fcss%3Ffamily%3DGloria%2BHallelujah;" vertex="1" parent="1">
          <mxGeometry x="786" y="557.5" width="54" height="54" as="geometry" />
        </mxCell>
        <mxCell id="hN2UPd_6Lu9fuNbE9eLv-45" value="Generic&lt;div&gt;VM&lt;/div&gt;" style="text;html=1;align=center;verticalAlign=middle;whiteSpace=wrap;rounded=0;fontFamily=Gloria Hallelujah;fontSource=https%3A%2F%2Ffonts.googleapis.com%2Fcss%3Ffamily%3DGloria%2BHallelujah;fontSize=12;fontColor=default;" vertex="1" parent="1">
          <mxGeometry x="703" y="509" width="60" height="30" as="geometry" />
        </mxCell>
        <mxCell id="hN2UPd_6Lu9fuNbE9eLv-46" value="Image&lt;div&gt;Registry&lt;/div&gt;" style="shape=cylinder3;whiteSpace=wrap;html=1;boundedLbl=1;backgroundOutline=1;size=15;sketch=1;jiggle=2;curveFitting=1;strokeColor=default;align=center;verticalAlign=top;fontFamily=Gloria Hallelujah;fontSource=https%3A%2F%2Ffonts.googleapis.com%2Fcss%3Ffamily%3DGloria%2BHallelujah;fontSize=12;fontColor=default;fillColor=default;" vertex="1" parent="1">
          <mxGeometry x="459" y="288" width="100" height="80" as="geometry" />
        </mxCell>
        <mxCell id="hN2UPd_6Lu9fuNbE9eLv-47" value="ECR" style="sketch=0;points=[[0,0,0],[0.25,0,0],[0.5,0,0],[0.75,0,0],[1,0,0],[0,1,0],[0.25,1,0],[0.5,1,0],[0.75,1,0],[1,1,0],[0,0.25,0],[0,0.5,0],[0,0.75,0],[1,0.25,0],[1,0.5,0],[1,0.75,0]];outlineConnect=0;fontColor=#232F3E;fillColor=#ED7100;strokeColor=#ffffff;dashed=0;verticalLabelPosition=bottom;verticalAlign=top;align=center;html=1;fontSize=12;fontStyle=0;aspect=fixed;shape=mxgraph.aws4.resourceIcon;resIcon=mxgraph.aws4.ecr;jiggle=2;curveFitting=1;fontFamily=Gloria Hallelujah;fontSource=https%3A%2F%2Ffonts.googleapis.com%2Fcss%3Ffamily%3DGloria%2BHallelujah;" vertex="1" parent="1">
          <mxGeometry x="430" y="311" width="48" height="48" as="geometry" />
        </mxCell>
        <mxCell id="hN2UPd_6Lu9fuNbE9eLv-49" value="DB" style="shape=cylinder3;whiteSpace=wrap;html=1;boundedLbl=1;backgroundOutline=1;size=15;sketch=1;jiggle=2;curveFitting=1;strokeColor=default;align=center;verticalAlign=middle;fontFamily=Gloria Hallelujah;fontSource=https%3A%2F%2Ffonts.googleapis.com%2Fcss%3Ffamily%3DGloria%2BHallelujah;fontSize=12;fontColor=default;fillColor=default;" vertex="1" parent="1">
          <mxGeometry x="630.4300000000001" y="290" width="60" height="80" as="geometry" />
        </mxCell>
        <mxCell id="hN2UPd_6Lu9fuNbE9eLv-48" value="RDS" style="sketch=0;points=[[0,0,0],[0.25,0,0],[0.5,0,0],[0.75,0,0],[1,0,0],[0,1,0],[0.25,1,0],[0.5,1,0],[0.75,1,0],[1,1,0],[0,0.25,0],[0,0.5,0],[0,0.75,0],[1,0.25,0],[1,0.5,0],[1,0.75,0]];outlineConnect=0;fontColor=#232F3E;fillColor=#C925D1;strokeColor=#ffffff;dashed=0;verticalLabelPosition=bottom;verticalAlign=top;align=center;html=1;fontSize=12;fontStyle=0;aspect=fixed;shape=mxgraph.aws4.resourceIcon;resIcon=mxgraph.aws4.rds;jiggle=2;curveFitting=1;fontFamily=Gloria Hallelujah;fontSource=https%3A%2F%2Ffonts.googleapis.com%2Fcss%3Ffamily%3DGloria%2BHallelujah;direction=south;" vertex="1" parent="1">
          <mxGeometry x="590" y="310" width="48" height="48" as="geometry" />
        </mxCell>
        <mxCell id="hN2UPd_6Lu9fuNbE9eLv-51" value="Large Lang&lt;div&gt;Model (LLM)&lt;/div&gt;" style="rounded=1;whiteSpace=wrap;html=1;sketch=1;jiggle=2;curveFitting=1;strokeColor=default;align=center;verticalAlign=middle;fontFamily=Gloria Hallelujah;fontSource=https%3A%2F%2Ffonts.googleapis.com%2Fcss%3Ffamily%3DGloria%2BHallelujah;fontSize=12;fontColor=default;fillColor=default;" vertex="1" parent="1">
          <mxGeometry x="757" y="293" width="103" height="60" as="geometry" />
        </mxCell>
        <mxCell id="hN2UPd_6Lu9fuNbE9eLv-52" value="Sagemaker/Bedrock" style="sketch=0;points=[[0,0,0],[0.25,0,0],[0.5,0,0],[0.75,0,0],[1,0,0],[0,1,0],[0.25,1,0],[0.5,1,0],[0.75,1,0],[1,1,0],[0,0.25,0],[0,0.5,0],[0,0.75,0],[1,0.25,0],[1,0.5,0],[1,0.75,0]];outlineConnect=0;fontColor=#232F3E;fillColor=#01A88D;strokeColor=#ffffff;dashed=0;verticalLabelPosition=bottom;verticalAlign=top;align=center;html=1;fontSize=12;fontStyle=0;aspect=fixed;shape=mxgraph.aws4.resourceIcon;resIcon=mxgraph.aws4.sagemaker;jiggle=2;curveFitting=1;fontFamily=Gloria Hallelujah;fontSource=https%3A%2F%2Ffonts.googleapis.com%2Fcss%3Ffamily%3DGloria%2BHallelujah;" vertex="1" parent="1">
          <mxGeometry x="723" y="311" width="48" height="48" as="geometry" />
        </mxCell>
        <mxCell id="hN2UPd_6Lu9fuNbE9eLv-55" value="Cloud Storage" style="shape=cylinder3;whiteSpace=wrap;html=1;boundedLbl=1;backgroundOutline=1;size=15;sketch=1;jiggle=2;curveFitting=1;strokeColor=default;align=center;verticalAlign=top;fontFamily=Gloria Hallelujah;fontSource=https%3A%2F%2Ffonts.googleapis.com%2Fcss%3Ffamily%3DGloria%2BHallelujah;fontSize=12;fontColor=default;fillColor=default;" vertex="1" parent="1">
          <mxGeometry x="469" y="192" width="80" height="80" as="geometry" />
        </mxCell>
        <mxCell id="hN2UPd_6Lu9fuNbE9eLv-54" value="S3" style="sketch=0;points=[[0,0,0],[0.25,0,0],[0.5,0,0],[0.75,0,0],[1,0,0],[0,1,0],[0.25,1,0],[0.5,1,0],[0.75,1,0],[1,1,0],[0,0.25,0],[0,0.5,0],[0,0.75,0],[1,0.25,0],[1,0.5,0],[1,0.75,0]];outlineConnect=0;fontColor=#232F3E;fillColor=#7AA116;strokeColor=#ffffff;dashed=0;verticalLabelPosition=bottom;verticalAlign=top;align=center;html=1;fontSize=12;fontStyle=0;aspect=fixed;shape=mxgraph.aws4.resourceIcon;resIcon=mxgraph.aws4.s3;jiggle=2;curveFitting=1;fontFamily=Gloria Hallelujah;fontSource=https%3A%2F%2Ffonts.googleapis.com%2Fcss%3Ffamily%3DGloria%2BHallelujah;" vertex="1" parent="1">
          <mxGeometry x="428" y="182" width="50" height="50" as="geometry" />
        </mxCell>
        <mxCell id="hN2UPd_6Lu9fuNbE9eLv-56" value="Large Lang&lt;div&gt;Model (LLM)&lt;/div&gt;" style="rounded=1;whiteSpace=wrap;html=1;sketch=1;jiggle=2;curveFitting=1;strokeColor=default;align=center;verticalAlign=middle;fontFamily=Gloria Hallelujah;fontSource=https%3A%2F%2Ffonts.googleapis.com%2Fcss%3Ffamily%3DGloria%2BHallelujah;fontSize=12;fontColor=default;fillColor=default;" vertex="1" parent="1">
          <mxGeometry x="767" y="303" width="103" height="60" as="geometry" />
        </mxCell>
        <mxCell id="hN2UPd_6Lu9fuNbE9eLv-57" value="Prisma CLoud&lt;div&gt;Scanner&lt;/div&gt;" style="text;html=1;align=center;verticalAlign=middle;whiteSpace=wrap;rounded=0;fontFamily=Gloria Hallelujah;fontSource=https%3A%2F%2Ffonts.googleapis.com%2Fcss%3Ffamily%3DGloria%2BHallelujah;fontSize=12;fontColor=default;" vertex="1" parent="1">
          <mxGeometry x="783" y="509" width="60" height="30" as="geometry" />
        </mxCell>
        <mxCell id="hN2UPd_6Lu9fuNbE9eLv-58" value="Fire&lt;div&gt;Shares&lt;/div&gt;" style="shape=document;whiteSpace=wrap;html=1;boundedLbl=1;sketch=1;jiggle=2;curveFitting=1;strokeColor=default;align=center;verticalAlign=top;fontFamily=Gloria Hallelujah;fontSource=https%3A%2F%2Ffonts.googleapis.com%2Fcss%3Ffamily%3DGloria%2BHallelujah;fontSize=12;fontColor=default;fillColor=default;" vertex="1" parent="1">
          <mxGeometry x="620.65" y="202" width="79.57" height="70" as="geometry" />
        </mxCell>
        <mxCell id="hN2UPd_6Lu9fuNbE9eLv-59" value="EFS" style="sketch=0;points=[[0,0,0],[0.25,0,0],[0.5,0,0],[0.75,0,0],[1,0,0],[0,1,0],[0.25,1,0],[0.5,1,0],[0.75,1,0],[1,1,0],[0,0.25,0],[0,0.5,0],[0,0.75,0],[1,0.25,0],[1,0.5,0],[1,0.75,0]];outlineConnect=0;fontColor=#232F3E;fillColor=#7AA116;strokeColor=#ffffff;dashed=0;verticalLabelPosition=bottom;verticalAlign=top;align=center;html=1;fontSize=12;fontStyle=0;aspect=fixed;shape=mxgraph.aws4.resourceIcon;resIcon=mxgraph.aws4.efs_standard;jiggle=2;curveFitting=1;fontFamily=Gloria Hallelujah;fontSource=https%3A%2F%2Ffonts.googleapis.com%2Fcss%3Ffamily%3DGloria%2BHallelujah;" vertex="1" parent="1">
          <mxGeometry x="582.43" y="183" width="48" height="48" as="geometry" />
        </mxCell>
        <mxCell id="hN2UPd_6Lu9fuNbE9eLv-60" value="Farage" style="sketch=0;points=[[0,0,0],[0.25,0,0],[0.5,0,0],[0.75,0,0],[1,0,0],[0,1,0],[0.25,1,0],[0.5,1,0],[0.75,1,0],[1,1,0],[0,0.25,0],[0,0.5,0],[0,0.75,0],[1,0.25,0],[1,0.5,0],[1,0.75,0]];outlineConnect=0;fontColor=#232F3E;fillColor=#ED7100;strokeColor=#ffffff;dashed=0;verticalLabelPosition=bottom;verticalAlign=top;align=center;html=1;fontSize=12;fontStyle=0;aspect=fixed;shape=mxgraph.aws4.resourceIcon;resIcon=mxgraph.aws4.fargate;jiggle=2;curveFitting=1;fontFamily=Gloria Hallelujah;fontSource=https%3A%2F%2Ffonts.googleapis.com%2Fcss%3Ffamily%3DGloria%2BHallelujah;" vertex="1" parent="1">
          <mxGeometry x="740" y="192" width="47.5" height="47.5" as="geometry" />
        </mxCell>
        <mxCell id="hN2UPd_6Lu9fuNbE9eLv-61" value="Lambda" style="sketch=0;points=[[0,0,0],[0.25,0,0],[0.5,0,0],[0.75,0,0],[1,0,0],[0,1,0],[0.25,1,0],[0.5,1,0],[0.75,1,0],[1,1,0],[0,0.25,0],[0,0.5,0],[0,0.75,0],[1,0.25,0],[1,0.5,0],[1,0.75,0]];outlineConnect=0;fontColor=#232F3E;fillColor=#ED7100;strokeColor=#ffffff;dashed=0;verticalLabelPosition=bottom;verticalAlign=top;align=center;html=1;fontSize=12;fontStyle=0;aspect=fixed;shape=mxgraph.aws4.resourceIcon;resIcon=mxgraph.aws4.lambda;jiggle=2;curveFitting=1;fontFamily=Gloria Hallelujah;fontSource=https%3A%2F%2Ffonts.googleapis.com%2Fcss%3Ffamily%3DGloria%2BHallelujah;" vertex="1" parent="1">
          <mxGeometry x="813" y="192.5" width="47" height="47" as="geometry" />
        </mxCell>
        <mxCell id="hN2UPd_6Lu9fuNbE9eLv-62" value="Transit&lt;div&gt;Gateway&lt;/div&gt;" style="sketch=0;points=[[0,0,0],[0.25,0,0],[0.5,0,0],[0.75,0,0],[1,0,0],[0,1,0],[0.25,1,0],[0.5,1,0],[0.75,1,0],[1,1,0],[0,0.25,0],[0,0.5,0],[0,0.75,0],[1,0.25,0],[1,0.5,0],[1,0.75,0]];outlineConnect=0;fontColor=#232F3E;fillColor=#8C4FFF;strokeColor=#ffffff;dashed=0;verticalLabelPosition=bottom;verticalAlign=top;align=center;html=1;fontSize=12;fontStyle=0;aspect=fixed;shape=mxgraph.aws4.resourceIcon;resIcon=mxgraph.aws4.transit_gateway;jiggle=2;curveFitting=1;fontFamily=Gloria Hallelujah;fontSource=https%3A%2F%2Ffonts.googleapis.com%2Fcss%3Ffamily%3DGloria%2BHallelujah;" vertex="1" parent="1">
          <mxGeometry x="940" y="511" width="48" height="48" as="geometry" />
        </mxCell>
        <mxCell id="hN2UPd_6Lu9fuNbE9eLv-63" value="Security VPC" style="rounded=0;whiteSpace=wrap;html=1;sketch=1;jiggle=2;curveFitting=1;strokeColor=default;align=center;verticalAlign=top;fontFamily=Gloria Hallelujah;fontSource=https%3A%2F%2Ffonts.googleapis.com%2Fcss%3Ffamily%3DGloria%2BHallelujah;fontSize=12;fontColor=default;fillColor=default;" vertex="1" parent="1">
          <mxGeometry x="930" y="310" width="150" height="155" as="geometry" />
        </mxCell>
        <mxCell id="hN2UPd_6Lu9fuNbE9eLv-65" value="Cloud NGFW&#xa;For AWS" style="shape=image;imageAspect=0;aspect=fixed;verticalLabelPosition=bottom;verticalAlign=top;sketch=1;jiggle=2;curveFitting=1;strokeColor=default;align=center;fontFamily=Gloria Hallelujah;fontSource=https%3A%2F%2Ffonts.googleapis.com%2Fcss%3Ffamily%3DGloria%2BHallelujah;fontSize=12;fontColor=default;fillColor=default;image=https://www.paloaltonetworks.co.uk/content/dam/pan/en_US/includes/igw/cloud-ngfw/assets/images/find-out-more/circle-logo-2.png;" vertex="1" parent="1">
          <mxGeometry x="1006.07" y="494.25" width="73.93" height="73.75" as="geometry" />
        </mxCell>
        <mxCell id="hN2UPd_6Lu9fuNbE9eLv-66" value="Subnet" style="outlineConnect=0;gradientColor=none;html=1;whiteSpace=wrap;fontSize=12;fontStyle=0;shape=mxgraph.aws4.group;grIcon=mxgraph.aws4.group_subnet;strokeColor=#879196;fillColor=none;verticalAlign=top;align=left;spacingLeft=30;fontColor=#879196;dashed=0;fontFamily=Gloria Hallelujah;fontSource=https%3A%2F%2Ffonts.googleapis.com%2Fcss%3Ffamily%3DGloria%2BHallelujah;" vertex="1" parent="1">
          <mxGeometry x="950" y="341" width="110.43" height="109" as="geometry" />
        </mxCell>
        <mxCell id="hN2UPd_6Lu9fuNbE9eLv-67" value="NGFW Endpoint" style="sketch=0;outlineConnect=0;fontColor=#232F3E;gradientColor=none;fillColor=#DD344C;strokeColor=none;dashed=0;verticalLabelPosition=bottom;verticalAlign=top;align=center;html=1;fontSize=12;fontStyle=0;aspect=fixed;pointerEvents=1;shape=mxgraph.aws4.network_firewall_endpoints;jiggle=2;curveFitting=1;fontFamily=Gloria Hallelujah;fontSource=https%3A%2F%2Ffonts.googleapis.com%2Fcss%3Ffamily%3DGloria%2BHallelujah;" vertex="1" parent="1">
          <mxGeometry x="980.5" y="371" width="49" height="49" as="geometry" />
        </mxCell>
      </root>
    </mxGraphModel>
  </diagram>
</mxfile>
